<?xml version="1.0" encoding="iso-8859-1"?>
<!-- Generator: Adobe Illustrator 18.0.0, SVG Export Plug-In . SVG Version: 6.00 Build 0)  -->
<!DOCTYPE svg PUBLIC "-//W3C//DTD SVG 1.1//EN" "http://www.w3.org/Graphics/SVG/1.1/DTD/svg11.dtd">
<svg version="1.1" id="Capa_1" xmlns="http://www.w3.org/2000/svg" xmlns:xlink="http://www.w3.org/1999/xlink" x="0px" y="0px"
	 viewBox="0 0 230 230" style="enable-background:new 0 0 230 230;" xml:space="preserve">
<path d="M174.317,225.23V4.771c0-2.634-2.136-4.771-4.77-4.771H60.453c-2.635,0-4.771,2.136-4.771,4.771V225.23
	c0,2.634,2.136,4.77,4.771,4.77h109.094C172.182,230,174.317,227.864,174.317,225.23z M92.461,208.073H75.842v-17.479h16.619
	V208.073z M92.461,177.713H75.842v-17.48h16.619V177.713z M92.461,147.353H75.842v-17.479h16.619V147.353z M123.309,208.073h-16.617
	v-17.479h16.617V208.073z M123.309,177.713h-16.617v-17.48h16.617V177.713z M123.309,147.353h-16.617v-17.479h16.617V147.353z
	 M154.158,208.073h-16.619v-17.479h16.619V208.073z M154.158,177.713h-16.619v-17.48h16.619V177.713z M154.158,147.353h-16.619
	v-17.479h16.619V147.353z M155.537,114.387H74.463v-92h81.074V114.387z"/>
<g>
</g>
<g>
</g>
<g>
</g>
<g>
</g>
<g>
</g>
<g>
</g>
<g>
</g>
<g>
</g>
<g>
</g>
<g>
</g>
<g>
</g>
<g>
</g>
<g>
</g>
<g>
</g>
<g>
</g>
</svg>
