<?xml version="1.0" encoding="iso-8859-1"?>
<!-- Generator: Adobe Illustrator 18.0.0, SVG Export Plug-In . SVG Version: 6.00 Build 0)  -->
<!DOCTYPE svg PUBLIC "-//W3C//DTD SVG 1.1//EN" "http://www.w3.org/Graphics/SVG/1.1/DTD/svg11.dtd">
<svg version="1.1" id="Capa_1" xmlns="http://www.w3.org/2000/svg" xmlns:xlink="http://www.w3.org/1999/xlink" x="0px" y="0px"
	 viewBox="0 0 215.99 215.99" style="enable-background:new 0 0 215.99 215.99;" xml:space="preserve">
<path d="M2.5,196.371h210.99c1.381,0,2.5-1.119,2.5-2.5v-20c0-0.319-0.062-0.636-0.181-0.932l-20.814-51.801V22.12
	c0-1.381-1.119-2.5-2.5-2.5h-169c-1.381,0-2.5,1.119-2.5,2.5v99.019L0.181,172.939C0.062,173.235,0,173.552,0,173.871v20
	C0,195.251,1.119,196.371,2.5,196.371z M179.654,156.879l-4.505-2.394l-1.272-4.187l7.602,0.163l1.274,4.189L179.654,156.879z
	 M186.883,143.227l3.924,2.954l-2.168,2.823l-5.517-0.119l-1.754-5.776L186.883,143.227z M172.959,134.861l4.509,2.393l1.272,4.188
	l-7.607-0.163l-1.274-4.188L172.959,134.861z M163.974,142.735l5.518,0.118l1.755,5.778l-5.518-0.12l-3.921-2.953L163.974,142.735z
	 M61.546,41.871h92.898v60H61.546V41.871z M65.935,133.874c28.041,0,56.082,0,84.125,0l11.535,28.994
	c-35.734,0-71.467-0.001-107.201,0.001L65.935,133.874z M27.61,143.719l8.329,0.12l2.604-5.77l8.771,0.127l-2.606,5.77l8.325,0.12
	l-2.744,6.079l-8.326-0.12l-2.607,5.769l-8.767-0.126l2.605-5.77l-8.327-0.12L27.61,143.719z"/>
<g>
</g>
<g>
</g>
<g>
</g>
<g>
</g>
<g>
</g>
<g>
</g>
<g>
</g>
<g>
</g>
<g>
</g>
<g>
</g>
<g>
</g>
<g>
</g>
<g>
</g>
<g>
</g>
<g>
</g>
</svg>
