<?xml version="1.0" encoding="iso-8859-1"?>
<!-- Generator: Adobe Illustrator 18.0.0, SVG Export Plug-In . SVG Version: 6.00 Build 0)  -->
<!DOCTYPE svg PUBLIC "-//W3C//DTD SVG 1.1//EN" "http://www.w3.org/Graphics/SVG/1.1/DTD/svg11.dtd">
<svg version="1.1" id="Capa_1" xmlns="http://www.w3.org/2000/svg" xmlns:xlink="http://www.w3.org/1999/xlink" x="0px" y="0px"
	 viewBox="0 0 220 220" style="enable-background:new 0 0 220 220;" xml:space="preserve">
<path d="M10.186,163.302h199.629c5.625,0,10.186-4.559,10.186-10.185V66.883c0-5.625-4.561-10.185-10.186-10.185H10.186
	C4.561,56.698,0,61.257,0,66.883v86.234C0,158.743,4.561,163.302,10.186,163.302z M41.332,124.264h-7.859v7.86h-8.279v-7.86h-7.86
	v-8.28h7.86v-7.86h8.279v7.86h7.859V124.264z M202.517,120.373h-5.706v-7.872h5.706l3.149,3.936L202.517,120.373z M202,80.999
	c3.498,0,6.334,2.836,6.334,6.334c0,3.498-2.836,6.333-6.334,6.333s-6.334-2.835-6.334-6.333
	C195.666,83.835,198.502,80.999,202,80.999z M186.73,104.586l3.936-3.149l3.936,3.149v5.707h-7.871V104.586z M186.73,122.581h7.871
	v5.707l-3.936,3.149l-3.936-3.149V122.581z M178.815,112.502h5.707v7.872h-5.707l-3.149-3.936L178.815,112.502z M112.667,63.167
	h23.167v4.5h-23.167V63.167z M84.166,63.167h23.167v4.5H84.166V63.167z M55.75,74h108.5v78H55.75V74z M39.666,80.999
	c3.498,0,6.334,2.836,6.334,6.334c0,3.498-2.836,6.333-6.334,6.333c-3.498,0-6.333-2.835-6.333-6.333
	C33.333,83.835,36.168,80.999,39.666,80.999z M20,80.999c3.498,0,6.334,2.836,6.334,6.334c0,3.498-2.836,6.333-6.334,6.333
	s-6.334-2.835-6.334-6.333C13.666,83.835,16.502,80.999,20,80.999z"/>
<g>
</g>
<g>
</g>
<g>
</g>
<g>
</g>
<g>
</g>
<g>
</g>
<g>
</g>
<g>
</g>
<g>
</g>
<g>
</g>
<g>
</g>
<g>
</g>
<g>
</g>
<g>
</g>
<g>
</g>
</svg>
