<?xml version="1.0" encoding="iso-8859-1"?>
<!-- Generator: Adobe Illustrator 18.0.0, SVG Export Plug-In . SVG Version: 6.00 Build 0)  -->
<!DOCTYPE svg PUBLIC "-//W3C//DTD SVG 1.1//EN" "http://www.w3.org/Graphics/SVG/1.1/DTD/svg11.dtd">
<svg version="1.1" id="Capa_1" xmlns="http://www.w3.org/2000/svg" xmlns:xlink="http://www.w3.org/1999/xlink" x="0px" y="0px"
	 viewBox="0 0 220 220" style="enable-background:new 0 0 220 220;" xml:space="preserve">
<path d="M56.916,0c-3.045,0-5.52,2.472-5.52,5.517v208.966c0,3.045,2.474,5.517,5.52,5.517h106.169c3.045,0,5.52-2.472,5.52-5.517
	V5.517c0-3.045-2.474-5.517-5.52-5.517H56.916z M110,201.878c-18.938,0-34.294-15.352-34.294-34.293
	c0-18.938,15.357-34.292,34.294-34.292s34.294,15.355,34.294,34.292C144.294,186.526,128.938,201.878,110,201.878z M146.989,119.115
	H73.011V25.934h73.978V119.115z M129.538,167.585c0,10.789-8.753,19.534-19.538,19.534s-19.538-8.746-19.538-19.534
	c0-10.788,8.753-19.534,19.538-19.534S129.538,156.797,129.538,167.585z"/>
<g>
</g>
<g>
</g>
<g>
</g>
<g>
</g>
<g>
</g>
<g>
</g>
<g>
</g>
<g>
</g>
<g>
</g>
<g>
</g>
<g>
</g>
<g>
</g>
<g>
</g>
<g>
</g>
<g>
</g>
</svg>
