<?xml version="1.0" encoding="iso-8859-1"?>
<!-- Generator: Adobe Illustrator 18.0.0, SVG Export Plug-In . SVG Version: 6.00 Build 0)  -->
<!DOCTYPE svg PUBLIC "-//W3C//DTD SVG 1.1//EN" "http://www.w3.org/Graphics/SVG/1.1/DTD/svg11.dtd">
<svg version="1.1" id="Capa_1" xmlns="http://www.w3.org/2000/svg" xmlns:xlink="http://www.w3.org/1999/xlink" x="0px" y="0px"
	 viewBox="0 0 238.313 238.313" style="enable-background:new 0 0 238.313 238.313;" xml:space="preserve">
<path d="M0,67.643v134.264c0,1.381,1.119,2.5,2.5,2.5h233.313c1.381,0,2.5-1.119,2.5-2.5V67.643c0-1.381-1.119-2.5-2.5-2.5H125.314
	v-2.181h-2.84V33.906h-6.637v29.056h-2.84v2.181H2.5C1.119,65.143,0,66.262,0,67.643z M158.734,155.311h-19.037v-19.037h19.037
	V155.311z M213.091,80.664h11.272v4.259h-11.272V80.664z M193.051,80.664h11.274v4.259h-11.274V80.664z M173.012,80.664h11.272
	v4.259h-11.272V80.664z M169.756,106.214h54.607v79.156h-54.607V106.214z M158.734,125.252h-19.037v-19.038h19.037V125.252z
	 M129.677,80.664h13.276V93.94h-13.276V80.664z M109.638,80.664h13.276V93.94h-13.276V80.664z M109.638,106.214h19.037v19.038
	h-19.037V106.214z M109.638,136.273h19.037v19.037h-19.037V136.273z M89.598,80.664h13.276V93.94H89.598V80.664z M79.578,125.252
	v-19.038h19.037v19.038H79.578z M98.615,136.273v19.037H79.578v-19.037H98.615z M69.558,80.664h13.276V93.94H69.558V80.664z
	 M49.519,80.664h13.275V93.94H49.519V80.664z M49.519,106.214h19.037v19.038H49.519V106.214z M49.519,136.273h19.037v19.037H49.519
	V136.273z M49.519,166.332h79.155v19.038H49.519V166.332z M19.461,80.664h13.275V93.94H19.461V80.664z M19.461,106.214h19.037
	v19.038H19.461V106.214z M19.461,136.273h19.037v19.037H19.461V136.273z M19.461,166.332h19.037v19.038H19.461V166.332z
	 M177.855,112.728h9.185v9.185h-9.185V112.728z M192.885,112.728h9.186v9.185h-9.186V112.728z M207.914,112.728h9.186v9.185h-9.186
	V112.728z M177.855,137.776h9.185v9.185h-9.185V137.776z M192.885,137.776h9.186v9.185h-9.186V137.776z M207.914,137.776h9.186
	v9.185h-9.186V137.776z M177.855,152.806h9.185v9.186h-9.185V152.806z M192.885,152.806h9.186v9.186h-9.186V152.806z
	 M207.914,152.806h9.186v9.186h-9.186V152.806z M177.855,167.835h9.185v9.186h-9.185V167.835z M192.885,167.835h9.186v9.186h-9.186
	V167.835z M207.914,167.835h9.186v9.186h-9.186V167.835z"/>
<g>
</g>
<g>
</g>
<g>
</g>
<g>
</g>
<g>
</g>
<g>
</g>
<g>
</g>
<g>
</g>
<g>
</g>
<g>
</g>
<g>
</g>
<g>
</g>
<g>
</g>
<g>
</g>
<g>
</g>
</svg>
