<?xml version="1.0" encoding="iso-8859-1"?>
<!-- Generator: Adobe Illustrator 18.0.0, SVG Export Plug-In . SVG Version: 6.00 Build 0)  -->
<!DOCTYPE svg PUBLIC "-//W3C//DTD SVG 1.1//EN" "http://www.w3.org/Graphics/SVG/1.1/DTD/svg11.dtd">
<svg version="1.1" id="Capa_1" xmlns="http://www.w3.org/2000/svg" xmlns:xlink="http://www.w3.org/1999/xlink" x="0px" y="0px"
	 viewBox="0 0 209 209" style="enable-background:new 0 0 209 209;" xml:space="preserve">
<path d="M136.065,23.104H72.935v162.791h63.131V23.104z M91.5,74.416h-7.333V68.75H91.5V74.416z M91.5,65.166h-7.333V59.5H91.5
	V65.166z M91.5,54.959h-7.333V31.166H91.5V54.959z M155.5,0h-102C52.119,0,51,1.119,51,2.5v204c0,1.381,1.119,2.5,2.5,2.5h102
	c1.381,0,2.5-1.119,2.5-2.5V2.5C158,1.119,156.881,0,155.5,0z M142.606,192.436H66.394V16.563h76.213V192.436z M193.916,24.959
	h14.918v9.082h-14.918v2.626h-31.5V22.333h31.5V24.959z M193.916,54.959h14.918v9.082h-14.918v2.626h-31.5V52.333h31.5V54.959z
	 M193.916,84.959h14.918v9.082h-14.918v2.626h-31.5V82.333h31.5V84.959z M193.916,114.959h14.918v9.082h-14.918v2.626h-31.5v-14.334
	h31.5V114.959z M193.916,144.959h14.918v9.082h-14.918v2.626h-31.5v-14.334h31.5V144.959z M193.916,174.959h14.918v9.082h-14.918
	v2.626h-31.5v-14.334h31.5V174.959z M15.083,22.333h31.5v14.334h-31.5v-2.626H0.166v-9.082h14.917V22.333z M15.083,52.333h31.5
	v14.334h-31.5v-2.626H0.166v-9.082h14.917V52.333z M15.083,82.333h31.5v14.334h-31.5v-2.626H0.166v-9.082h14.917V82.333z
	 M15.083,112.333h31.5v14.334h-31.5v-2.626H0.166v-9.082h14.917V112.333z M15.083,142.333h31.5v14.334h-31.5v-2.626H0.166v-9.082
	h14.917V142.333z M15.083,172.333h31.5v14.334h-31.5v-2.626H0.166v-9.082h14.917V172.333z"/>
<g>
</g>
<g>
</g>
<g>
</g>
<g>
</g>
<g>
</g>
<g>
</g>
<g>
</g>
<g>
</g>
<g>
</g>
<g>
</g>
<g>
</g>
<g>
</g>
<g>
</g>
<g>
</g>
<g>
</g>
</svg>
