<?xml version="1.0" encoding="iso-8859-1"?>
<!-- Generator: Adobe Illustrator 18.0.0, SVG Export Plug-In . SVG Version: 6.00 Build 0)  -->
<!DOCTYPE svg PUBLIC "-//W3C//DTD SVG 1.1//EN" "http://www.w3.org/Graphics/SVG/1.1/DTD/svg11.dtd">
<svg version="1.1" id="Capa_1" xmlns="http://www.w3.org/2000/svg" xmlns:xlink="http://www.w3.org/1999/xlink" x="0px" y="0px"
	 viewBox="0 0 252 252" style="enable-background:new 0 0 252 252;" xml:space="preserve">
<path d="M249.5,153.031h-13.924v-99.52l-2.826-22.168h-5l-2.826,22.168v99.52H27.076v-99.52L24.25,31.344h-5l-2.826,22.168v99.52
	H2.5c-1.381,0-2.5,1.119-2.5,2.5v62.625c0,1.381,1.119,2.5,2.5,2.5h247c1.381,0,2.5-1.119,2.5-2.5v-62.625
	C252,154.15,250.881,153.031,249.5,153.031z M220.834,203.506H31.166v-33.324h16.501v10.996h9v-10.996h11v10.996h9v-10.996h11
	v10.996h9v-10.996h11v10.996h9v-10.996h57.5v10.996h9v-10.996h11v10.996h9v-10.996h17.667V203.506z"/>
<g>
</g>
<g>
</g>
<g>
</g>
<g>
</g>
<g>
</g>
<g>
</g>
<g>
</g>
<g>
</g>
<g>
</g>
<g>
</g>
<g>
</g>
<g>
</g>
<g>
</g>
<g>
</g>
<g>
</g>
</svg>
