<?xml version="1.0" encoding="iso-8859-1"?>
<!-- Generator: Adobe Illustrator 18.0.0, SVG Export Plug-In . SVG Version: 6.00 Build 0)  -->
<!DOCTYPE svg PUBLIC "-//W3C//DTD SVG 1.1//EN" "http://www.w3.org/Graphics/SVG/1.1/DTD/svg11.dtd">
<svg version="1.1" id="Capa_1" xmlns="http://www.w3.org/2000/svg" xmlns:xlink="http://www.w3.org/1999/xlink" x="0px" y="0px"
	 viewBox="0 0 190.5 190.5" style="enable-background:new 0 0 190.5 190.5;" xml:space="preserve">
<path d="M132.25,0h-74c-0.829,0-1.5,0.672-1.5,1.5v50.667H49.5c-1.381,0-2.5,1.119-2.5,2.5V188c0,1.381,1.119,2.5,2.5,2.5H141
	c1.381,0,2.5-1.119,2.5-2.5V54.667c0-1.381-1.119-2.5-2.5-2.5h-7.25V1.5C133.75,0.672,133.079,0,132.25,0z M98.75,178.668h-7
	c-1.932,0-3.5-1.568-3.5-3.5c0-1.935,1.568-3.5,3.5-3.5h7c1.932,0,3.5,1.565,3.5,3.5C102.25,177.1,100.682,178.668,98.75,178.668z
	 M122.75,52.167h-55V11h10.253v28.49c0,0.413,0.334,0.747,0.747,0.747h9.5c0.413,0,0.747-0.334,0.747-0.747V11h12.506v28.49
	c0,0.413,0.334,0.747,0.747,0.747h9.5c0.413,0,0.747-0.334,0.747-0.747V11h10.253V52.167z"/>
<g>
</g>
<g>
</g>
<g>
</g>
<g>
</g>
<g>
</g>
<g>
</g>
<g>
</g>
<g>
</g>
<g>
</g>
<g>
</g>
<g>
</g>
<g>
</g>
<g>
</g>
<g>
</g>
<g>
</g>
</svg>
