<?xml version="1.0" encoding="iso-8859-1"?>
<!-- Generator: Adobe Illustrator 18.0.0, SVG Export Plug-In . SVG Version: 6.00 Build 0)  -->
<!DOCTYPE svg PUBLIC "-//W3C//DTD SVG 1.1//EN" "http://www.w3.org/Graphics/SVG/1.1/DTD/svg11.dtd">
<svg version="1.1" id="Capa_1" xmlns="http://www.w3.org/2000/svg" xmlns:xlink="http://www.w3.org/1999/xlink" x="0px" y="0px"
	 viewBox="0 0 220 220" style="enable-background:new 0 0 220 220;" xml:space="preserve">
<path d="M61.367,220h97.266c9.591,0,17.364-7.776,17.364-17.369V17.369C175.997,7.776,168.224,0,158.633,0H61.367
	c-9.591,0-17.364,7.776-17.364,17.369v185.262C44.003,212.224,51.776,220,61.367,220z M110,208.833c-4.142,0-7.5-3.358-7.5-7.5
	c0-4.142,3.358-7.5,7.5-7.5c4.142,0,7.5,3.358,7.5,7.5C117.5,205.476,114.142,208.833,110,208.833z M59.055,34.685h101.891v150.631
	H59.055V34.685z"/>
<g>
</g>
<g>
</g>
<g>
</g>
<g>
</g>
<g>
</g>
<g>
</g>
<g>
</g>
<g>
</g>
<g>
</g>
<g>
</g>
<g>
</g>
<g>
</g>
<g>
</g>
<g>
</g>
<g>
</g>
</svg>
