<?xml version="1.0" encoding="iso-8859-1"?>
<!-- Generator: Adobe Illustrator 18.0.0, SVG Export Plug-In . SVG Version: 6.00 Build 0)  -->
<!DOCTYPE svg PUBLIC "-//W3C//DTD SVG 1.1//EN" "http://www.w3.org/Graphics/SVG/1.1/DTD/svg11.dtd">
<svg version="1.1" id="Capa_1" xmlns="http://www.w3.org/2000/svg" xmlns:xlink="http://www.w3.org/1999/xlink" x="0px" y="0px"
	 viewBox="0 0 214.5 214.5" style="enable-background:new 0 0 214.5 214.5;" xml:space="preserve">
<path d="M62.583,214.5h89.334c5.522,0,10-4.477,10-10V10c0-5.523-4.478-10-10-10H62.583c-5.523,0-10,4.477-10,10v194.5
	C52.583,210.023,57.06,214.5,62.583,214.5z M107.25,201.25c-4.142,0-7.5-3.358-7.5-7.5s3.358-7.5,7.5-7.5c4.142,0,7.5,3.358,7.5,7.5
	S111.392,201.25,107.25,201.25z M107.25,10.188c1.381,0,2.5,1.119,2.5,2.5s-1.119,2.5-2.5,2.5c-1.381,0-2.5-1.119-2.5-2.5
	S105.869,10.188,107.25,10.188z M96.125,19.063h22.25c1.381,0,2.5,1.119,2.5,2.5s-1.119,2.5-2.5,2.5h-22.25
	c-1.381,0-2.5-1.119-2.5-2.5S94.744,19.063,96.125,19.063z M65.627,37.7h83.246v139.1H65.627V37.7z"/>
<g>
</g>
<g>
</g>
<g>
</g>
<g>
</g>
<g>
</g>
<g>
</g>
<g>
</g>
<g>
</g>
<g>
</g>
<g>
</g>
<g>
</g>
<g>
</g>
<g>
</g>
<g>
</g>
<g>
</g>
</svg>
