<?xml version="1.0" encoding="iso-8859-1"?>
<!-- Generator: Adobe Illustrator 18.0.0, SVG Export Plug-In . SVG Version: 6.00 Build 0)  -->
<!DOCTYPE svg PUBLIC "-//W3C//DTD SVG 1.1//EN" "http://www.w3.org/Graphics/SVG/1.1/DTD/svg11.dtd">
<svg version="1.1" id="Capa_1" xmlns="http://www.w3.org/2000/svg" xmlns:xlink="http://www.w3.org/1999/xlink" x="0px" y="0px"
	 viewBox="0 0 241 241" style="enable-background:new 0 0 241 241;" xml:space="preserve">
<path d="M65.213,241h110.574c6.649,0,12.059-5.412,12.059-12.064V12.064c0-6.652-5.41-12.064-12.059-12.064H65.213
	c-6.649,0-12.059,5.412-12.059,12.064v216.873C53.154,235.588,58.564,241,65.213,241z M64.154,12.064
	c0-0.586,0.475-1.064,1.059-1.064h110.574c0.583,0,1.059,0.477,1.059,1.064v19.77H64.154V12.064z M176.301,40.5v148.667H64.699V40.5
	H176.301z M64.154,209.167h112.691v19.769c0,0.586-0.475,1.064-1.059,1.064H65.213c-0.584,0-1.059-0.477-1.059-1.064V209.167z
	 M97.5,21.5c0,1.104-0.896,2-2,2s-2-0.896-2-2s0.896-2,2-2S97.5,20.396,97.5,21.5z M107.5,21.5c0,1.104-0.896,2-2,2s-2-0.896-2-2
	s0.896-2,2-2S107.5,20.396,107.5,21.5z M117.5,21.5c0,1.104-0.896,2-2,2s-2-0.896-2-2s0.896-2,2-2S117.5,20.396,117.5,21.5z
	 M127.5,21.5c0,1.104-0.896,2-2,2s-2-0.896-2-2s0.896-2,2-2S127.5,20.396,127.5,21.5z M137.5,21.5c0,1.104-0.896,2-2,2
	c-1.105,0-2-0.896-2-2s0.895-2,2-2C136.604,19.5,137.5,20.396,137.5,21.5z M147.5,21.5c0,1.104-0.896,2-2,2c-1.105,0-2-0.896-2-2
	s0.895-2,2-2C146.604,19.5,147.5,20.396,147.5,21.5z"/>
<g>
</g>
<g>
</g>
<g>
</g>
<g>
</g>
<g>
</g>
<g>
</g>
<g>
</g>
<g>
</g>
<g>
</g>
<g>
</g>
<g>
</g>
<g>
</g>
<g>
</g>
<g>
</g>
<g>
</g>
</svg>
