<?xml version="1.0" encoding="iso-8859-1"?>
<!-- Generator: Adobe Illustrator 18.0.0, SVG Export Plug-In . SVG Version: 6.00 Build 0)  -->
<!DOCTYPE svg PUBLIC "-//W3C//DTD SVG 1.1//EN" "http://www.w3.org/Graphics/SVG/1.1/DTD/svg11.dtd">
<svg version="1.1" id="Capa_1" xmlns="http://www.w3.org/2000/svg" xmlns:xlink="http://www.w3.org/1999/xlink" x="0px" y="0px"
	 viewBox="0 0 230 230" style="enable-background:new 0 0 230 230;" xml:space="preserve">
<path d="M199.646,71.725c-0.473-0.614-1.205-0.975-1.98-0.975h-30.522v-55H62.857v55H32.334c-0.776,0-1.508,0.36-1.981,0.975
	l-29.834,38.75C0.183,110.912,0,111.448,0,112v78.731c0,1.381,1.119,2.5,2.5,2.5h55.638l-4.747,21.019h123.216l-4.746-21.019H227.5
	c1.381,0,2.5-1.119,2.5-2.5V112c0-0.552-0.183-1.088-0.52-1.525L199.646,71.725z M28.666,134.833h-6.333v-11.832h6.333V134.833z
	 M48.666,134.833h-6.333v-11.832h6.333V134.833z M73.357,26.25h83.287v73.5H73.357V26.25z M62.333,123.001h6.333v11.832h-6.333
	V123.001z M66.527,203.75l8.92-39.5h79.107l8.919,39.5H66.527z M198.5,151.833c-3.864,0-7-3.136-7-7c0-3.864,3.136-7,7-7
	c3.864,0,7,3.136,7,7C205.5,148.697,202.364,151.833,198.5,151.833z M87.75,37.084h54.5v10.5h-54.5V37.084z M87.75,57.084h54.5v10.5
	h-54.5V57.084z M87.75,77.084h54.5v10.5h-54.5V77.084z"/>
<g>
</g>
<g>
</g>
<g>
</g>
<g>
</g>
<g>
</g>
<g>
</g>
<g>
</g>
<g>
</g>
<g>
</g>
<g>
</g>
<g>
</g>
<g>
</g>
<g>
</g>
<g>
</g>
<g>
</g>
</svg>
