<?xml version="1.0" encoding="iso-8859-1"?>
<!-- Generator: Adobe Illustrator 18.0.0, SVG Export Plug-In . SVG Version: 6.00 Build 0)  -->
<!DOCTYPE svg PUBLIC "-//W3C//DTD SVG 1.1//EN" "http://www.w3.org/Graphics/SVG/1.1/DTD/svg11.dtd">
<svg version="1.1" id="Capa_1" xmlns="http://www.w3.org/2000/svg" xmlns:xlink="http://www.w3.org/1999/xlink" x="0px" y="0px"
	 viewBox="0 0 247.891 247.891" style="enable-background:new 0 0 247.891 247.891;" xml:space="preserve">
<path d="M224.205,80.409H108.029c-9.007-10.216-22.177-16.678-36.834-16.678s-27.827,6.462-36.834,16.678H23.685
	C10.602,80.409,0,91.011,0,104.094v42.631c0,13.083,10.602,23.685,23.685,23.685h3.51v13.75h50.75v-13.75h92v13.75h50.75v-13.75
	h3.51c13.084,0,23.686-10.602,23.686-23.685v-42.631C247.891,91.011,237.289,80.409,224.205,80.409z M71.195,143.731
	c-17.029,0-30.885-13.855-30.885-30.885c0-17.029,13.855-30.885,30.885-30.885s30.885,13.855,30.885,30.885
	C102.08,129.876,88.225,143.731,71.195,143.731z M220.07,143.097h-89.75v-10.25h89.75V143.097z M220.07,117.972h-89.75v-10.25h89.75
	V117.972z"/>
<g>
</g>
<g>
</g>
<g>
</g>
<g>
</g>
<g>
</g>
<g>
</g>
<g>
</g>
<g>
</g>
<g>
</g>
<g>
</g>
<g>
</g>
<g>
</g>
<g>
</g>
<g>
</g>
<g>
</g>
</svg>
