<?xml version="1.0" encoding="iso-8859-1"?>
<!-- Generator: Adobe Illustrator 18.0.0, SVG Export Plug-In . SVG Version: 6.00 Build 0)  -->
<!DOCTYPE svg PUBLIC "-//W3C//DTD SVG 1.1//EN" "http://www.w3.org/Graphics/SVG/1.1/DTD/svg11.dtd">
<svg version="1.1" id="Capa_1" xmlns="http://www.w3.org/2000/svg" xmlns:xlink="http://www.w3.org/1999/xlink" x="0px" y="0px"
	 viewBox="0 0 221.138 221.138" style="enable-background:new 0 0 221.138 221.138;" xml:space="preserve">
<path d="M52.48,210.372c2.019,2.663,8.162,10.765,58.088,10.765c49.929,0,56.071-8.103,58.09-10.766
	c1.329-1.753,1.962-3.814,1.788-5.706V16.472c0.174-1.893-0.459-3.954-1.788-5.706C166.639,8.102,160.496,0,110.57,0
	C60.642,0,54.498,8.102,52.48,10.765c-1.329,1.753-1.961,3.814-1.788,5.707v188.193C50.519,206.559,51.151,208.62,52.48,210.372z
	 M98.227,12.385h24.684v4.421H98.227V12.385z M63.594,24.634h93.949v171.869H63.594V24.634z"/>
<g>
</g>
<g>
</g>
<g>
</g>
<g>
</g>
<g>
</g>
<g>
</g>
<g>
</g>
<g>
</g>
<g>
</g>
<g>
</g>
<g>
</g>
<g>
</g>
<g>
</g>
<g>
</g>
<g>
</g>
</svg>
